<svg width="32" height="32" viewBox="0 0 32 32" fill="none" xmlns="http://www.w3.org/2000/svg">
  <rect width="32" height="32" fill="white"/>
  <path d="M13.286 13.0273C11.5573 13.0273 10.693 12.5195 9.14163 12.5195C6.06108 12.5195 4 13.8 4 16.074C4 19.7169 9.8065 20.1143 9.8065 22.6532C9.8065 23.3377 9.31893 23.7792 8.43244 23.7792C6.46 23.7792 4.70919 21.726 4.22162 19.5623H4.04432L4.24378 23.5143C6.94757 23.5143 7.14703 24 8.69839 24C12.2443 24 14.1503 22.5208 14.1503 20.2026C14.1503 16.4273 8.21082 16.1623 8.21082 13.7117C8.21082 13.0052 8.69839 12.6961 9.31893 12.6961C11.3357 12.6961 12.6211 14.661 12.9535 16.3831H13.153L13.286 13.0273Z" fill="black"/>
  <path d="M21.5092 23.3597C21.0216 23.3597 20.6449 23.1831 20.6449 22.5208V14.4182C21.2654 14.2857 21.5313 14.087 22.0411 14.087C22.4843 14.087 22.8611 14.4182 22.8611 15.0584V22.3221C22.8611 23.0727 22.6173 23.3597 22.0189 23.3597V23.5584C22.0189 23.5584 23.1492 23.4922 25.2989 23.4922C27.4486 23.4922 29 23.5584 29 23.5584V23.3597C28.1357 23.3597 27.7811 23.1831 27.7811 22.1896V15.6325C27.7811 13.6013 26.7395 12.5195 24.9886 12.5195C23.2378 12.5195 22.0189 13.7779 20.6449 14.2416V7C20.6449 7 17.8303 8.1039 14.4616 8.1039L14.5502 8.3026C15.3481 8.3026 15.7248 8.56753 15.7248 9.42857V21.8143C15.7248 22.7636 15.3259 23.3597 14.4616 23.3597V23.5584C14.4616 23.5584 15.9908 23.4922 18.1848 23.4922C20.3567 23.4922 21.5092 23.5584 21.5092 23.5584V23.3597Z" fill="black"/>
</svg>
